# xmcd
#
# Track frame offsets:
#	180
#	629
#	21529
#	37961
#	51892
#	69400
#	90507
#	105703
#	123972
#	139173
#	139701
#
# Disc length: 2059 seconds
#
# Revision: 1
# Processed by: cddbd v1.5.2PL0 Copyright (c) Steve Scherf et al.
# Submitted via: audiograbber 1.83.01
#
DISCID=8f08090b
DTITLE=Peter de Vries - unknown
DYEAR=2002
DGENRE=Blues
TTITLE0=intro
TTITLE1=Handbags and gladrags
TTITLE2=Hard to handle
TTITLE3=Let the good times roll
TTITLE4=Ring of fire
TTITLE5=Faces
TTITLE6=Ticket to ride
TTITLE7=Heart of gold
TTITLE8=Sea of love
TTITLE9=none
TTITLE10=Ticket to ride
EXTD=
EXTT0=
EXTT1=
EXTT2=
EXTT3=
EXTT4=
EXTT5=
EXTT6=
EXTT7=
EXTT8=
EXTT9=
EXTT10=
PLAYORDER=
